<svg xmlns="http://www.w3.org/2000/svg" xmlns:xlink="http://www.w3.org/1999/xlink" width="216" height="100"><defs><path id="a" d="M-17.444-44.872h271.647v192.074H-17.444z"/></defs><clipPath id="b"><use xlink:href="#a" overflow="visible"/></clipPath><path clip-path="url(#b)" fill="#fff" d="M100.648 87.411c-.835 0-1.539.331-2.113.993-.574.66-.983 1.611-1.229 2.854l-.295 1.467c-.225 1.116-.123 2.043.308 2.78.43.741 1.036 1.11 1.819 1.11.851 0 1.57-.33 2.159-.989.588-.659 1.006-1.609 1.256-2.844l.289-1.469c.221-1.11.11-2.038-.332-2.784-.443-.745-1.063-1.118-1.862-1.118m1.476 3.89l-.295 1.481c-.196.961-.523 1.732-.98 2.311-.457.577-.983.865-1.582.865-.651 0-1.12-.288-1.403-.859-.285-.573-.328-1.366-.127-2.374l.302-1.479c.188-.957.504-1.722.949-2.3.444-.576.954-.866 1.532-.866.672 0 1.156.287 1.453.86.297.575.347 1.36.151 2.361M87.166 72.625c-2.239-.096-4.084-.897-4.811-2.826 5.586.356 12.918-.294 12.918-6.185 0-5.604-4.545-7.62-9.377-7.62-7.44 0-14.643 6.031-16.088 13.472-1.445 7.441 3.414 13.47 10.854 13.47 9.247 0 15.298-5.972 15.298-12.905-1.586 1.827-5.331 2.742-8.794 2.594m-5.041-6.187c.633-4.423 3.835-7.879 4.686-7.879.942 0 1.643 1.893 1.574 4.425-.06 2.259-1.685 3.894-4.984 3.894-.425 0-.866-.021-1.315-.059.012-.128.02-.249.039-.381M92.987 87.54h-.731l-1.788 8.945h4.16l.129-.626h-3.429l1.659-8.319zm-5.648 0h-2.537l-1.789 8.945h.726l.737-3.703h1.819c.757 0 1.382-.227 1.873-.681.491-.452.824-1.102.996-1.944.152-.771.059-1.399-.279-1.886-.338-.487-.853-.731-1.546-.731m1.094 2.629a2.821 2.821 0 01-.715 1.396c-.363.381-.795.571-1.294.571h-1.819l.793-3.945h1.813c.55 0 .92.18 1.112.536.192.36.229.84.11 1.442m11.5-86.643v.645a7.924 7.924 0 107.924 7.923c0-5.744-3.525-11.719-12.871-11.719-11.974 0-19.784 5.335-26.806 25.761h13.232C86.92 8.351 90.59 3.526 99.933 3.526m-2.141 24.236c-7.44 0-14.644 6.031-16.089 13.471-1.445 7.439 3.414 13.471 10.854 13.471 7.439 0 14.642-6.032 16.088-13.471 1.447-7.44-3.413-13.471-10.853-13.471m-.637 13.281c-1.698 5.92-4.224 10.719-5.243 10.719s-.792-4.799.905-10.719c1.699-5.919 4.225-10.718 5.244-10.718 1.021 0 .793 4.799-.906 10.718M20.749 24.889a7.924 7.924 0 100-15.847 7.924 7.924 0 000 15.847M212.83 41.163l2.248-10.227H123.99a12.16 12.16 0 00-11.857 9.463l-2.344 10.313h91.166a12.159 12.159 0 0011.875-9.549M34.916 53.575c3.273-11.374 7.753-18.069 9.367-18.069 1.612 0-4.173 8.313-4.173 12.417 0 3.537 2.666 6.781 6.717 6.781s10.617-4.783 11.975-9.841h-5.431c2.894-8.233 4.841-17.101-2.636-17.101-5.159 0-9.903 5.293-12.242 9.034h-.323l.932-4.526c.573-2.952-1.004-5.167-4.94-5.167-6.564 0-12.911 11.628-12.911 11.628h6.575c-1.783 2.336-4.961 6.847-7.689 6.847-.963 0-1.741-.798-1.741-2.003 0-3.34 3.95-7.142 3.95-10.534 0-4.046-2.205-5.938-6.471-5.938C7.063 27.103.706 36.934.4 38.731h7.502c-1.667 3.083-2.922 6.89-2.922 10.17 0 2.974 2.651 5.802 5.781 5.802 5.866 0 10.919-4.15 13.935-7.684l-2.477 6.555h12.697zm33.732 42.91h4.56l.128-.626h-3.834l.731-3.699h3.343l.122-.628h-3.336l.67-3.341h3.798l.128-.651h-4.521l-1.789 8.945zm16.006-63.559l1.224-3.873H67.216l-.006.017c-8.003.352-10.254 9.663-10.254 9.663h6.624l-8.916 31.12c-6.257 21.283-9.744 26.799-19.783 26.799v-.644a7.924 7.924 0 10-7.923-7.923c0 5.743 3.525 11.718 12.87 11.718 12.755 0 20.784-6.051 28.17-29.95l8.918-31.128a8.304 8.304 0 007.738-5.799M81.195 87.54l-2.439 3.773-.036-.008-1.236-3.766h-.872l1.604 4.412-3.103 4.533h.879l2.531-3.887.036.006 1.285 3.881h.866l-1.653-4.533 3.01-4.412h-.872zm27.557.006h-2.457l-1.788 8.939h.726l.805-4.049h1.904c.459 0 .786.151.98.453.196.303.235.744.12 1.322l-.167.82c-.061.3-.096.579-.104.84-.009.262.034.467.128.613h.747l.029-.146a1.033 1.033 0 01-.154-.532c-.008-.211.02-.465.082-.761l.164-.844c.098-.515.082-.955-.045-1.318-.129-.362-.388-.618-.773-.767a2.517 2.517 0 001.085-.791c.289-.359.484-.796.586-1.307.158-.789.063-1.399-.281-1.828-.343-.429-.872-.644-1.587-.644m1.144 2.47c-.109.537-.346.971-.71 1.301-.362.329-.821.493-1.374.493h-1.646l.725-3.618h1.733c.561 0 .944.148 1.149.445s.248.758.123 1.379m93.545-7.08c7.641 0 12.117-2.575 12.117-8.459 0-6.578-13.334-11.443-13.334-14.078 0-1.206.752-1.84 1.967-1.84 4.541 0 6.744 7.763 6.744 7.763s4.83-.897 4.83-4.486c0-3.59-4.674-5.841-9.701-5.841-7.178 0-12.795 2.564-12.795 7.648 0 1.248.596 2.438 1.527 3.572-.996.907-2.24 1.964-3.541 2.891l.002-.075c-.07.08-.146.156-.227.229-.836.588-1.695 1.112-2.523 1.502-1.762.653-3.953.954-6.047.863-2.238-.096-4.082-.897-4.809-2.826 5.584.356 12.916-.294 12.916-6.185 0-5.604-4.545-7.62-9.375-7.62-7.441 0-14.643 6.031-16.088 13.472a13.241 13.241 0 00-.223 3.469h-3.85c2.893-8.234 4.84-17.102-2.637-17.102-5.16 0-9.9 5.294-12.242 9.036h-.324l.934-4.528c.572-2.95-1.004-5.165-4.941-5.165-6.564 0-12.91 11.627-12.91 11.627h6.574l-5.605 14.843h12.695c3.273-11.373 7.756-18.068 9.367-18.068 1.613 0-4.172 8.314-4.172 12.418 0 3.539 2.666 6.78 6.717 6.78 3.361 0 8.451-3.291 10.863-7.303 1.348 4.424 5.326 7.463 10.605 7.463 6.699 0 11.719-3.132 13.979-7.495 2.609 4.38 7.941 7.495 13.507 7.495m2.479-4.868c-.137 1.026-.785 2.288-2.084 2.288-3.02 0-4.898-5.753-5.9-10.203 3.73 2.946 8.294 5.53 7.984 7.915m-28.498-11.63c.631-4.423 3.834-7.879 4.686-7.879.943 0 1.643 1.893 1.574 4.425-.059 2.259-1.686 3.894-4.986 3.894-.424 0-.865-.021-1.314-.059.013-.128.02-.249.04-.381m-65.129 30.047h4.561l.129-.626h-3.834l.73-3.699h3.344l.121-.628h-3.336l.67-3.341h3.797l.129-.651h-4.521l-1.79 8.945zm80.533-8.945h-2.158l-1.787 8.945h2.5c.713 0 1.313-.2 1.797-.601.486-.4.814-1.029.986-1.885.107-.549.068-1.028-.113-1.44-.182-.411-.486-.663-.906-.758.385-.13.715-.36.988-.688.275-.329.463-.733.561-1.211.152-.776.051-1.362-.305-1.765-.356-.397-.877-.597-1.563-.597m.516 5.128c.174.327.209.777.098 1.349-.115.575-.352 1.026-.709 1.353-.359.327-.766.49-1.221.49h-1.775l.732-3.681h1.893c.478 0 .806.164.982.489m.625-2.791c-.105.525-.316.934-.631 1.223a1.65 1.65 0 01-1.088.453h-1.654l.672-3.361h1.43c.537 0 .912.133 1.129.396.214.266.261.695.142 1.289m-12.516-2.466c-.645 0-1.197.182-1.662.543-.465.365-.762.885-.895 1.562-.154.771-.082 1.358.221 1.763.305.403.818.763 1.543 1.073.652.312 1.08.618 1.285.921.205.301.254.725.146 1.27-.082.401-.301.745-.66 1.024a1.831 1.831 0 01-1.158.421c-.553 0-.994-.149-1.322-.453-.33-.303-.42-.845-.262-1.623h-.689l-.018.032c-.197.913-.064 1.587.4 2.021.467.433 1.053.65 1.764.65.678 0 1.26-.176 1.742-.524.484-.352.793-.871.934-1.567.148-.746.068-1.325-.24-1.737-.307-.413-.824-.776-1.553-1.093-.668-.314-1.096-.619-1.283-.913-.189-.295-.229-.72-.119-1.277.08-.394.281-.733.607-1.016a1.616 1.616 0 011.09-.424c.545 0 .939.185 1.189.555.248.372.309.871.188 1.501h.73c.168-.839.059-1.499-.33-1.984-.386-.484-.935-.725-1.648-.725m17.403.129h-.732l-1.789 8.945h4.16l.131-.626h-3.43l1.66-8.319zm-24.624-.129c-.641 0-1.197.182-1.662.543-.465.365-.762.885-.893 1.562-.156.771-.082 1.358.221 1.763.303.403.816.763 1.543 1.073.652.312 1.078.618 1.283.921.205.301.254.725.146 1.27-.08.401-.301.745-.66 1.024a1.83 1.83 0 01-1.156.421c-.555 0-.996-.149-1.324-.453-.33-.303-.418-.845-.262-1.623h-.688l-.02.032c-.197.913-.064 1.587.402 2.021.465.433 1.051.65 1.762.65.68 0 1.26-.176 1.744-.524.482-.352.795-.871.934-1.567.148-.746.068-1.325-.238-1.737-.309-.413-.826-.776-1.557-1.093-.668-.314-1.096-.619-1.283-.913-.189-.295-.227-.72-.115-1.277a1.76 1.76 0 01.604-1.016 1.621 1.621 0 011.09-.424c.547 0 .941.185 1.189.555.248.372.311.871.188 1.501h.732c.166-.839.059-1.499-.328-1.984-.388-.484-.939-.725-1.652-.725m39.352 0c-.645 0-1.197.182-1.662.543-.465.365-.764.885-.895 1.562-.156.771-.082 1.358.223 1.763.303.403.816.763 1.541 1.073.65.312 1.08.618 1.283.921.205.301.254.725.148 1.27-.082.401-.303.745-.66 1.024a1.835 1.835 0 01-1.158.421c-.553 0-.994-.149-1.324-.453-.33-.303-.418-.845-.262-1.623h-.688l-.02.032c-.197.913-.061 1.587.402 2.021.467.433 1.053.65 1.76.65.682 0 1.264-.176 1.746-.524.484-.352.795-.871.934-1.567.148-.746.068-1.325-.24-1.737-.305-.413-.824-.776-1.553-1.093-.668-.314-1.096-.619-1.283-.913-.189-.295-.229-.72-.119-1.277.08-.394.281-.733.605-1.016a1.622 1.622 0 011.092-.424c.543 0 .939.185 1.189.555.248.372.309.871.186 1.501h.732c.168-.839.059-1.499-.33-1.984-.383-.484-.934-.725-1.647-.725m-10.734 9.074h4.559l.129-.626H203.7l.732-3.699h3.344l.123-.628h-3.336l.67-3.341h3.797l.129-.651h-4.523l-1.788 8.945zm-17.838 0h.73l1.789-8.945h-.732l-1.787 8.945zm-58.614-25.338l5.607-14.843h-12.699c-3.27 11.374-7.752 18.069-9.365 18.069-1.615 0 4.172-8.313 4.172-12.416 0-3.539-2.666-6.782-6.717-6.782-4.052 0-10.617 4.782-11.976 9.842h5.432c-2.893 8.233-4.841 17.102 2.635 17.102 5.16 0 9.904-5.295 12.244-9.036h.324l-.932 4.526c-.572 2.951 1.004 5.166 4.939 5.166 6.564 0 12.91-11.628 12.91-11.628h-6.574zm6.833 16.393h-.73l-1.789 8.945h4.16l.129-.626h-3.43l1.66-8.319zm-9.721.006h-2.457l-1.789 8.939h.725l.805-4.049h1.906c.457 0 .785.151.98.453.193.303.232.744.119 1.322l-.166.82c-.061.3-.098.579-.105.84-.006.262.035.467.129.613h.742l.033-.146a1.013 1.013 0 01-.152-.532c-.01-.211.018-.465.078-.761l.166-.844c.1-.515.084-.955-.047-1.318-.129-.362-.385-.618-.77-.767a2.532 2.532 0 001.084-.791c.289-.359.482-.796.586-1.307.156-.789.063-1.399-.283-1.828-.344-.429-.871-.644-1.584-.644m1.142 2.47c-.109.537-.348.971-.709 1.301-.363.329-.82.493-1.373.493h-1.648l.725-3.618h1.734c.561 0 .943.148 1.148.445s.248.758.123 1.379m41.955-2.605c-.836 0-1.541.331-2.113.993-.572.66-.982 1.611-1.23 2.854l-.295 1.467c-.223 1.116-.121 2.043.309 2.78.432.741 1.035 1.11 1.818 1.11.854 0 1.574-.33 2.162-.989s1.004-1.609 1.254-2.844l.291-1.469c.219-1.11.109-2.038-.334-2.784-.442-.745-1.063-1.118-1.862-1.118m1.475 3.89l-.295 1.481c-.197.961-.523 1.732-.98 2.311-.455.577-.982.865-1.582.865-.65 0-1.117-.288-1.404-.859-.285-.573-.324-1.366-.125-2.374l.301-1.479c.189-.957.506-1.722.949-2.3.445-.576.955-.866 1.533-.866.672 0 1.156.287 1.451.86.299.575.349 1.36.152 2.361m-30.857 5.184h4.559l.129-.626h-3.832l.73-3.699h3.342l.123-.628h-3.336l.672-3.341h3.795l.129-.651h-4.523l-1.788 8.945zm22.187-8.945h-2.537l-1.789 8.945h.727l.738-3.703h1.816c.76 0 1.383-.227 1.875-.681.49-.452.824-1.102.996-1.944.15-.771.057-1.399-.281-1.886-.336-.487-.851-.731-1.545-.731m1.094 2.629a2.816 2.816 0 01-.717 1.396c-.361.381-.793.571-1.291.571h-1.82l.793-3.945h1.813c.549 0 .918.18 1.111.536.193.36.23.84.111 1.442m-12.547-2.758c-.645 0-1.197.182-1.662.543-.465.365-.762.885-.893 1.562-.156.771-.084 1.358.221 1.763.303.403.816.763 1.541 1.073.652.312 1.08.618 1.283.921.205.301.254.725.148 1.27-.082.401-.303.745-.66 1.024a1.826 1.826 0 01-1.156.421c-.555 0-.996-.149-1.326-.453-.33-.303-.418-.845-.26-1.623h-.689l-.018.032c-.197.913-.063 1.587.4 2.021.467.433 1.053.65 1.762.65.682 0 1.262-.176 1.746-.524.482-.352.793-.871.934-1.567.146-.746.066-1.325-.242-1.737-.305-.413-.824-.776-1.553-1.093-.668-.314-1.096-.619-1.285-.913-.188-.295-.229-.72-.115-1.277a1.78 1.78 0 01.604-1.016 1.63 1.63 0 011.092-.424c.545 0 .941.185 1.189.555.246.372.311.871.186 1.501h.732c.168-.839.057-1.499-.33-1.984-.387-.484-.936-.725-1.649-.725"/><path d="M119.182 42.922h-1.646l-.54 1.268h-1.327l2.952-6.194h1.118l.813 6.194h-1.263l-.107-1.268zm-1.201-1.043h1.115l-.175-2.195-.94 2.195zm8.319-3.883l-.723 4.254c-.088.644-.328 1.146-.719 1.506-.392.36-.905.535-1.54.523-.596-.011-1.047-.199-1.353-.562-.307-.363-.425-.852-.354-1.468l.724-4.254h1.225l-.715 4.258-.017.366c0 .397.197.603.591.617.272.008.485-.064.639-.217.153-.153.254-.408.302-.766l.719-4.258h1.221zm2.168 4.479l1.71-4.479h1.391l-2.701 6.194h-1.271l-.753-6.194h1.323l.301 4.479zm6.331-.965h-1.889l-.285 1.642h2.238l-.184 1.038h-3.454l1.072-6.194h3.45l-.184 1.042h-2.225l-.255 1.463h1.893l-.177 1.009zm2.941.416h-.621l-.391 2.263h-1.221l1.071-6.194 1.873.005c.553.017.977.188 1.271.511s.42.764.375 1.323c-.071.848-.457 1.438-1.157 1.77l.621 2.519v.068h-1.311l-.51-2.265zm-.442-1.042l.643.008a.846.846 0 00.698-.351c.17-.229.253-.531.251-.908-.012-.372-.175-.569-.489-.591l-.779-.004-.324 1.846zm7.272 2.604c-.23.255-.529.451-.898.589a3.222 3.222 0 01-1.187.198 1.898 1.898 0 01-.966-.245 1.618 1.618 0 01-.632-.697 2.55 2.55 0 01-.24-1.053 4.086 4.086 0 01.03-.659l.153-1.025c.13-.862.411-1.528.842-1.999s.992-.699 1.685-.685c.59.012 1.034.189 1.334.534.299.344.451.854.457 1.529l-1.187-.004-.013-.34c-.037-.442-.254-.671-.651-.685-.587-.022-.973.365-1.157 1.162l-.063.319-.17 1.195a3.948 3.948 0 00-.043.698c.015.317.086.548.215.691.129.144.312.218.547.224.221.006.468-.067.74-.217l.217-1.14h-.855l.166-.944h2.067l-.391 2.554zm5.022.701h-1.19l-1.081-4.105-.715 4.105h-1.221l1.072-6.194h1.195l1.085 4.109.714-4.109h1.217l-1.076 6.194zm4.668-2.679h-1.889l-.285 1.642h2.238l-.184 1.038h-3.454l1.072-6.194h3.45l-.184 1.042h-2.225l-.255 1.463h1.893l-.177 1.009zm3.125.527h-2.025l.179-1.004h2.025l-.179 1.004zm3.017-.111h-.621l-.391 2.263h-1.221l1.071-6.194 1.873.005c.553.017.977.188 1.271.511s.42.764.375 1.323c-.071.848-.457 1.438-1.157 1.77l.621 2.519v.068h-1.311l-.51-2.265zm-.442-1.042l.643.008a.846.846 0 00.698-.351c.17-.229.253-.531.251-.908-.012-.372-.175-.569-.489-.591l-.779-.004-.324 1.846zm7.233 3.305h-1.216l.459-2.65h-1.782l-.46 2.65h-1.221l1.072-6.194h1.221l-.434 2.506h1.782l.438-2.506h1.216l-1.075 6.194zm3.236.085c-.544-.011-.976-.19-1.295-.536-.319-.346-.493-.827-.521-1.442a3.603 3.603 0 01.025-.646l.158-1.029c.082-.55.242-1.038.48-1.463s.534-.742.889-.949.755-.306 1.2-.298c.55.012.981.199 1.295.564.313.364.481.863.504 1.495a3.99 3.99 0 01-.038.676l-.141.949c-.128.851-.415 1.514-.861 1.989-.446.474-1.012.705-1.695.69zm1.476-3.67a6.29 6.29 0 00.051-.676c-.015-.632-.242-.958-.685-.974a.934.934 0 00-.823.385c-.209.271-.354.695-.437 1.274l-.148 1.042c-.034.281-.047.5-.038.659.014.596.248.903.701.923.323.011.589-.108.796-.357s.352-.658.434-1.225l.149-1.051zm1.046-3.091v.079l-.893-.013-.404-.608-.626.604-.918.013V37.5l1.229-1.164.66-.004.952 1.181zm4.775 6.676h-1.19l-1.081-4.105-.715 4.105h-1.221l1.072-6.194h1.195l1.085 4.109.714-4.109h1.217l-1.076 6.194zm4.669-2.679h-1.889l-.285 1.642h2.238l-.184 1.038h-3.454l1.072-6.194h3.45l-.184 1.042h-2.225l-.255 1.463h1.893l-.177 1.009zm3.125.527h-2.025l.179-1.004h2.025l-.179 1.004zm3.88.885h-1.646l-.54 1.268h-1.327l2.952-6.194h1.118l.813 6.194h-1.263l-.107-1.268zm-1.2-1.043h1.115l-.175-2.195-.94 2.195zm4.673 1.272h2.132l-.184 1.038h-3.348l1.072-6.194h1.221l-.893 5.156zm4.376-1.139l-.379 2.178h-1.221l1.072-6.194 1.987.004c.542.017.967.21 1.274.581s.438.848.389 1.432c-.057.607-.286 1.093-.688 1.457-.403.364-.916.546-1.54.546l-.894-.004zm.179-1.043l.787.009c.304-.006.539-.123.706-.351.167-.229.247-.535.238-.921-.006-.196-.053-.352-.141-.468a.479.479 0 00-.365-.191l-.89-.008-.335 1.93zm6.731.541h-1.889l-.285 1.642h2.238l-.184 1.038h-3.454l1.072-6.194h3.45l-.184 1.042H202.7l-.255 1.463h1.893l-.179 1.009zm3.558 1.02c.028-.209-.002-.385-.092-.525-.089-.14-.274-.278-.557-.413a4.01 4.01 0 01-.709-.419c-.519-.394-.757-.892-.714-1.493a1.8 1.8 0 01.325-.925c.191-.271.447-.481.768-.632s.664-.221 1.029-.213c.53.012.945.195 1.244.551.3.356.438.812.415 1.368l-1.217-.004c.031-.582-.154-.876-.557-.885a.72.72 0 00-.534.202.903.903 0 00-.271.542c-.042.332.188.615.689.851.502.236.862.501 1.081.796.243.326.347.723.31 1.191-.042.539-.255.969-.638 1.291s-.86.477-1.434.466c-.575-.011-1.03-.207-1.365-.587-.335-.38-.488-.867-.46-1.459l1.226.004c-.022.366.024.627.143.785.117.157.303.236.555.236.222-.003.396-.072.523-.206a.926.926 0 00.24-.522z" fill="#00ACA6"/></svg>