<?xml version="1.0" encoding="utf-8"?>
<!-- Generator: Adobe Illustrator 15.1.0, SVG Export Plug-In . SVG Version: 6.00 Build 0)  -->
<!DOCTYPE svg PUBLIC "-//W3C//DTD SVG 1.1//EN" "http://www.w3.org/Graphics/SVG/1.1/DTD/svg11.dtd">
<svg version="1.1" id="Calque_1" xmlns="http://www.w3.org/2000/svg" xmlns:xlink="http://www.w3.org/1999/xlink" x="0px" y="0px"
	 width="216px" height="100px" viewBox="0 0 216 100" enable-background="new 0 0 216 100" xml:space="preserve">
<g>
	<defs>
		<rect id="SVGID_1_" x="-17.444" y="-44.872" width="271.647" height="192.074"/>
	</defs>
	<clipPath id="SVGID_2_">
		<use xlink:href="#SVGID_1_"  overflow="visible"/>
	</clipPath>
	<path clip-path="url(#SVGID_2_)" fill="#fff" d="M100.648,87.411c-0.835,0-1.539,0.331-2.113,0.993
		c-0.574,0.66-0.983,1.611-1.229,2.854l-0.295,1.467c-0.225,1.116-0.123,2.043,0.308,2.78c0.43,0.741,1.036,1.11,1.819,1.11
		c0.851,0,1.57-0.33,2.159-0.989c0.588-0.659,1.006-1.609,1.256-2.844l0.289-1.469c0.221-1.11,0.11-2.038-0.332-2.784
		C102.067,87.784,101.447,87.411,100.648,87.411 M102.124,91.301l-0.295,1.481c-0.196,0.961-0.523,1.732-0.98,2.311
		c-0.457,0.577-0.983,0.865-1.582,0.865c-0.651,0-1.12-0.288-1.403-0.859c-0.285-0.573-0.328-1.366-0.127-2.374l0.302-1.479
		c0.188-0.957,0.504-1.722,0.949-2.3c0.444-0.576,0.954-0.866,1.532-0.866c0.672,0,1.156,0.287,1.453,0.86
		C102.27,89.515,102.32,90.3,102.124,91.301 M87.166,72.625c-2.239-0.096-4.084-0.897-4.811-2.826
		c5.586,0.356,12.918-0.294,12.918-6.185c0-5.604-4.545-7.62-9.377-7.62c-7.44,0-14.643,6.031-16.088,13.472
		c-1.445,7.441,3.414,13.47,10.854,13.47c9.247,0,15.298-5.972,15.298-12.905C94.374,71.858,90.629,72.773,87.166,72.625
		 M82.125,66.438c0.633-4.423,3.835-7.879,4.686-7.879c0.942,0,1.643,1.893,1.574,4.425c-0.06,2.259-1.685,3.894-4.984,3.894
		c-0.425,0-0.866-0.021-1.315-0.059C82.098,66.691,82.106,66.57,82.125,66.438 M92.987,87.54h-0.731l-1.788,8.945h4.16l0.129-0.626
		h-3.429L92.987,87.54z M87.339,87.54h-2.537l-1.789,8.945h0.726l0.737-3.703h1.819c0.757,0,1.382-0.227,1.873-0.681
		c0.491-0.452,0.824-1.102,0.996-1.944c0.152-0.771,0.059-1.399-0.279-1.886C88.547,87.784,88.032,87.54,87.339,87.54
		 M88.433,90.169c-0.114,0.548-0.354,1.016-0.715,1.396c-0.363,0.381-0.795,0.571-1.294,0.571h-1.819l0.793-3.945h1.813
		c0.55,0,0.92,0.18,1.112,0.536C88.515,89.087,88.552,89.567,88.433,90.169 M99.933,3.526v0.645c-4.376,0-7.923,3.547-7.923,7.923
		c0,4.376,3.547,7.924,7.923,7.924s7.924-3.548,7.924-7.924c0-5.744-3.525-11.719-12.871-11.719
		c-11.974,0-19.784,5.335-26.806,25.761h13.232C86.92,8.351,90.59,3.526,99.933,3.526 M97.792,27.762
		c-7.44,0-14.644,6.031-16.089,13.471c-1.445,7.439,3.414,13.471,10.854,13.471c7.439,0,14.642-6.032,16.088-13.471
		C110.092,33.793,105.232,27.762,97.792,27.762 M97.155,41.043c-1.698,5.92-4.224,10.719-5.243,10.719s-0.792-4.799,0.905-10.719
		c1.699-5.919,4.225-10.718,5.244-10.718C99.082,30.325,98.854,35.124,97.155,41.043 M20.749,24.889
		c4.376,0,7.924-3.547,7.924-7.924c0-4.376-3.548-7.923-7.924-7.923s-7.923,3.547-7.923,7.923
		C12.826,21.342,16.373,24.889,20.749,24.889 M212.83,41.163l2.248-10.227H123.99c-5.676,0-10.598,3.928-11.857,9.463l-2.344,10.313
		h91.166C206.664,50.712,211.604,46.74,212.83,41.163 M34.916,53.575c3.273-11.374,7.753-18.069,9.367-18.069
		c1.612,0-4.173,8.313-4.173,12.417c0,3.537,2.666,6.781,6.717,6.781s10.617-4.783,11.975-9.841h-5.431
		c2.894-8.233,4.841-17.101-2.636-17.101c-5.159,0-9.903,5.293-12.242,9.034H38.17l0.932-4.526c0.573-2.952-1.004-5.167-4.94-5.167
		c-6.564,0-12.911,11.628-12.911,11.628h6.575c-1.783,2.336-4.961,6.847-7.689,6.847c-0.963,0-1.741-0.798-1.741-2.003
		c0-3.34,3.95-7.142,3.95-10.534c0-4.046-2.205-5.938-6.471-5.938c-8.812,0-15.169,9.831-15.475,11.628h7.502
		c-1.667,3.083-2.922,6.89-2.922,10.17c0,2.974,2.651,5.802,5.781,5.802c5.866,0,10.919-4.15,13.935-7.684l-2.477,6.555H34.916z
		 M68.648,96.485h4.56l0.128-0.626h-3.834l0.731-3.699h3.343l0.122-0.628h-3.336l0.67-3.341h3.798l0.128-0.651h-4.521L68.648,96.485
		z M84.654,32.926l1.224-3.873H67.675c-0.001,0-0.001,0-0.002,0h-0.457c-0.002,0.005-0.004,0.011-0.006,0.017
		c-8.003,0.352-10.254,9.663-10.254,9.663h6.624l-8.916,31.12c-6.257,21.283-9.744,26.799-19.783,26.799v-0.644
		c4.376,0,7.924-3.548,7.924-7.923c0-4.378-3.548-7.925-7.924-7.925s-7.923,3.547-7.923,7.925c0,5.743,3.525,11.718,12.87,11.718
		c12.755,0,20.784-6.051,28.17-29.95l8.918-31.128C80.465,38.646,83.582,36.323,84.654,32.926 M81.195,87.54l-2.439,3.773
		l-0.036-0.008l-1.236-3.766h-0.872l1.604,4.412l-3.103,4.533h0.879l2.531-3.887l0.036,0.006l1.285,3.881h0.866l-1.653-4.533
		l3.01-4.412H81.195z M108.752,87.546h-2.457l-1.788,8.939h0.726l0.805-4.049h1.904c0.459,0,0.786,0.151,0.98,0.453
		c0.196,0.303,0.235,0.744,0.12,1.322l-0.167,0.82c-0.061,0.3-0.096,0.579-0.104,0.84c-0.009,0.262,0.034,0.467,0.128,0.613h0.747
		l0.029-0.146c-0.094-0.144-0.145-0.32-0.154-0.532c-0.008-0.211,0.02-0.465,0.082-0.761l0.164-0.844
		c0.098-0.515,0.082-0.955-0.045-1.318c-0.129-0.362-0.388-0.618-0.773-0.767c0.435-0.167,0.798-0.431,1.085-0.791
		c0.289-0.359,0.484-0.796,0.586-1.307c0.158-0.789,0.063-1.399-0.281-1.828C109.996,87.761,109.467,87.546,108.752,87.546
		 M109.896,90.016c-0.109,0.537-0.346,0.971-0.71,1.301c-0.362,0.329-0.821,0.493-1.374,0.493h-1.646l0.725-3.618h1.733
		c0.561,0,0.944,0.148,1.149,0.445S110.021,89.395,109.896,90.016 M203.441,82.936c7.641,0,12.117-2.575,12.117-8.459
		c0-6.578-13.334-11.443-13.334-14.078c0-1.206,0.752-1.84,1.967-1.84c4.541,0,6.744,7.763,6.744,7.763s4.83-0.897,4.83-4.486
		c0-3.59-4.674-5.841-9.701-5.841c-7.178,0-12.795,2.564-12.795,7.648c0,1.248,0.596,2.438,1.527,3.572
		c-0.996,0.907-2.24,1.964-3.541,2.891c0-0.024,0.002-0.051,0.002-0.075c-0.07,0.08-0.146,0.156-0.227,0.229
		c-0.836,0.588-1.695,1.112-2.523,1.502c-1.762,0.653-3.953,0.954-6.047,0.863c-2.238-0.096-4.082-0.897-4.809-2.826
		c5.584,0.356,12.916-0.294,12.916-6.185c0-5.604-4.545-7.62-9.375-7.62c-7.441,0-14.643,6.031-16.088,13.472
		c-0.234,1.2-0.301,2.363-0.223,3.469h-3.85c2.893-8.234,4.84-17.102-2.637-17.102c-5.16,0-9.9,5.294-12.242,9.036h-0.324
		l0.934-4.528c0.572-2.95-1.004-5.165-4.941-5.165c-6.564,0-12.91,11.627-12.91,11.627h6.574l-5.605,14.843h12.695
		c3.273-11.373,7.756-18.068,9.367-18.068c1.613,0-4.172,8.314-4.172,12.418c0,3.539,2.666,6.78,6.717,6.78
		c3.361,0,8.451-3.291,10.863-7.303c1.348,4.424,5.326,7.463,10.605,7.463c6.699,0,11.719-3.132,13.979-7.495
		C192.543,79.821,197.875,82.936,203.441,82.936 M205.92,78.068c-0.137,1.026-0.785,2.288-2.084,2.288
		c-3.02,0-4.898-5.753-5.9-10.203C201.666,73.099,206.23,75.683,205.92,78.068 M177.422,66.438c0.631-4.423,3.834-7.879,4.686-7.879
		c0.943,0,1.643,1.893,1.574,4.425c-0.059,2.259-1.686,3.894-4.986,3.894c-0.424,0-0.865-0.021-1.314-0.059
		C177.395,66.691,177.402,66.57,177.422,66.438 M112.293,96.485h4.561l0.129-0.626h-3.834l0.73-3.699h3.344l0.121-0.628h-3.336
		l0.67-3.341h3.797l0.129-0.651h-4.521L112.293,96.485z M192.826,87.54h-2.158l-1.787,8.945h2.5c0.713,0,1.313-0.2,1.797-0.601
		c0.486-0.4,0.814-1.029,0.986-1.885c0.107-0.549,0.068-1.028-0.113-1.44c-0.182-0.411-0.486-0.663-0.906-0.758
		c0.385-0.13,0.715-0.36,0.988-0.688c0.275-0.329,0.463-0.733,0.561-1.211c0.152-0.776,0.051-1.362-0.305-1.765
		C194.033,87.74,193.512,87.54,192.826,87.54 M193.342,92.668c0.174,0.327,0.209,0.777,0.098,1.349
		c-0.115,0.575-0.352,1.026-0.709,1.353c-0.359,0.327-0.766,0.49-1.221,0.49h-1.775l0.732-3.681h1.893
		C192.838,92.179,193.166,92.343,193.342,92.668 M193.967,89.877c-0.105,0.525-0.316,0.934-0.631,1.223
		c-0.316,0.29-0.68,0.439-1.088,0.453h-1.654l0.672-3.361h1.43c0.537,0,0.912,0.133,1.129,0.396
		C194.039,88.854,194.086,89.283,193.967,89.877 M181.451,87.411c-0.645,0-1.197,0.182-1.662,0.543
		c-0.465,0.365-0.762,0.885-0.895,1.562c-0.154,0.771-0.082,1.358,0.221,1.763c0.305,0.403,0.818,0.763,1.543,1.073
		c0.652,0.312,1.08,0.618,1.285,0.921c0.205,0.301,0.254,0.725,0.146,1.27c-0.082,0.401-0.301,0.745-0.66,1.024
		c-0.357,0.282-0.744,0.421-1.158,0.421c-0.553,0-0.994-0.149-1.322-0.453c-0.33-0.303-0.42-0.845-0.262-1.623h-0.689l-0.018,0.032
		c-0.197,0.913-0.064,1.587,0.4,2.021c0.467,0.433,1.053,0.65,1.764,0.65c0.678,0,1.26-0.176,1.742-0.524
		c0.484-0.352,0.793-0.871,0.934-1.567c0.148-0.746,0.068-1.325-0.24-1.737c-0.307-0.413-0.824-0.776-1.553-1.093
		c-0.668-0.314-1.096-0.619-1.283-0.913c-0.189-0.295-0.229-0.72-0.119-1.277c0.08-0.394,0.281-0.733,0.607-1.016
		c0.324-0.283,0.688-0.424,1.09-0.424c0.545,0,0.939,0.185,1.189,0.555c0.248,0.372,0.309,0.871,0.188,1.501h0.73
		c0.168-0.839,0.059-1.499-0.33-1.984C182.713,87.652,182.164,87.411,181.451,87.411 M198.854,87.54h-0.732l-1.789,8.945h4.16
		l0.131-0.626h-3.43L198.854,87.54z M174.23,87.411c-0.641,0-1.197,0.182-1.662,0.543c-0.465,0.365-0.762,0.885-0.893,1.562
		c-0.156,0.771-0.082,1.358,0.221,1.763c0.303,0.403,0.816,0.763,1.543,1.073c0.652,0.312,1.078,0.618,1.283,0.921
		c0.205,0.301,0.254,0.725,0.146,1.27c-0.08,0.401-0.301,0.745-0.66,1.024c-0.357,0.282-0.744,0.421-1.156,0.421
		c-0.555,0-0.996-0.149-1.324-0.453c-0.33-0.303-0.418-0.845-0.262-1.623h-0.688l-0.02,0.032c-0.197,0.913-0.064,1.587,0.402,2.021
		c0.465,0.433,1.051,0.65,1.762,0.65c0.68,0,1.26-0.176,1.744-0.524c0.482-0.352,0.795-0.871,0.934-1.567
		c0.148-0.746,0.068-1.325-0.238-1.737c-0.309-0.413-0.826-0.776-1.557-1.093c-0.668-0.314-1.096-0.619-1.283-0.913
		c-0.189-0.295-0.227-0.72-0.115-1.277c0.076-0.394,0.277-0.733,0.604-1.016c0.326-0.283,0.689-0.424,1.09-0.424
		c0.547,0,0.941,0.185,1.189,0.555c0.248,0.372,0.311,0.871,0.188,1.501h0.732c0.166-0.839,0.059-1.499-0.328-1.984
		C175.494,87.652,174.943,87.411,174.23,87.411 M213.582,87.411c-0.645,0-1.197,0.182-1.662,0.543
		c-0.465,0.365-0.764,0.885-0.895,1.562c-0.156,0.771-0.082,1.358,0.223,1.763c0.303,0.403,0.816,0.763,1.541,1.073
		c0.65,0.312,1.08,0.618,1.283,0.921c0.205,0.301,0.254,0.725,0.148,1.27c-0.082,0.401-0.303,0.745-0.66,1.024
		c-0.357,0.282-0.746,0.421-1.158,0.421c-0.553,0-0.994-0.149-1.324-0.453c-0.33-0.303-0.418-0.845-0.262-1.623h-0.688l-0.02,0.032
		c-0.197,0.913-0.061,1.587,0.402,2.021c0.467,0.433,1.053,0.65,1.76,0.65c0.682,0,1.264-0.176,1.746-0.524
		c0.484-0.352,0.795-0.871,0.934-1.567c0.148-0.746,0.068-1.325-0.24-1.737c-0.305-0.413-0.824-0.776-1.553-1.093
		c-0.668-0.314-1.096-0.619-1.283-0.913c-0.189-0.295-0.229-0.72-0.119-1.277c0.08-0.394,0.281-0.733,0.605-1.016
		c0.326-0.283,0.689-0.424,1.092-0.424c0.543,0,0.939,0.185,1.189,0.555c0.248,0.372,0.309,0.871,0.186,1.501h0.732
		c0.168-0.839,0.059-1.499-0.33-1.984C214.846,87.652,214.295,87.411,213.582,87.411 M202.848,96.485h4.559l0.129-0.626h-3.836
		l0.732-3.699h3.344l0.123-0.628h-3.336l0.67-3.341h3.797l0.129-0.651h-4.523L202.848,96.485z M185.01,96.485h0.73l1.789-8.945
		h-0.732L185.01,96.485z M126.396,71.147l5.607-14.843h-12.699c-3.27,11.374-7.752,18.069-9.365,18.069
		c-1.615,0,4.172-8.313,4.172-12.416c0-3.539-2.666-6.782-6.717-6.782c-4.052,0-10.617,4.782-11.976,9.842h5.432
		c-2.893,8.233-4.841,17.102,2.635,17.102c5.16,0,9.904-5.295,12.244-9.036h0.324l-0.932,4.526
		c-0.572,2.951,1.004,5.166,4.939,5.166c6.564,0,12.91-11.628,12.91-11.628H126.396z M133.229,87.54h-0.73l-1.789,8.945h4.16
		l0.129-0.626h-3.43L133.229,87.54z M123.508,87.546h-2.457l-1.789,8.939h0.725l0.805-4.049h1.906c0.457,0,0.785,0.151,0.98,0.453
		c0.193,0.303,0.232,0.744,0.119,1.322l-0.166,0.82c-0.061,0.3-0.098,0.579-0.105,0.84c-0.006,0.262,0.035,0.467,0.129,0.613h0.742
		l0.033-0.146c-0.094-0.144-0.145-0.32-0.152-0.532c-0.01-0.211,0.018-0.465,0.078-0.761l0.166-0.844
		c0.1-0.515,0.084-0.955-0.047-1.318c-0.129-0.362-0.385-0.618-0.77-0.767c0.434-0.167,0.795-0.431,1.084-0.791
		c0.289-0.359,0.482-0.796,0.586-1.307c0.156-0.789,0.063-1.399-0.283-1.828C124.748,87.761,124.221,87.546,123.508,87.546
		 M124.65,90.016c-0.109,0.537-0.348,0.971-0.709,1.301c-0.363,0.329-0.82,0.493-1.373,0.493h-1.648l0.725-3.618h1.734
		c0.561,0,0.943,0.148,1.148,0.445S124.775,89.395,124.65,90.016 M166.605,87.411c-0.836,0-1.541,0.331-2.113,0.993
		c-0.572,0.66-0.982,1.611-1.23,2.854l-0.295,1.467c-0.223,1.116-0.121,2.043,0.309,2.78c0.432,0.741,1.035,1.11,1.818,1.11
		c0.854,0,1.574-0.33,2.162-0.989s1.004-1.609,1.254-2.844l0.291-1.469c0.219-1.11,0.109-2.038-0.334-2.784
		C168.025,87.784,167.404,87.411,166.605,87.411 M168.08,91.301l-0.295,1.481c-0.197,0.961-0.523,1.732-0.98,2.311
		c-0.455,0.577-0.982,0.865-1.582,0.865c-0.65,0-1.117-0.288-1.404-0.859c-0.285-0.573-0.324-1.366-0.125-2.374l0.301-1.479
		c0.189-0.957,0.506-1.722,0.949-2.3c0.445-0.576,0.955-0.866,1.533-0.866c0.672,0,1.156,0.287,1.451,0.86
		C168.227,89.515,168.277,90.3,168.08,91.301 M137.223,96.485h4.559l0.129-0.626h-3.832l0.73-3.699h3.342l0.123-0.628h-3.336
		l0.672-3.341h3.795l0.129-0.651h-4.523L137.223,96.485z M159.41,87.54h-2.537l-1.789,8.945h0.727l0.738-3.703h1.816
		c0.76,0,1.383-0.227,1.875-0.681c0.49-0.452,0.824-1.102,0.996-1.944c0.15-0.771,0.057-1.399-0.281-1.886
		C160.619,87.784,160.104,87.54,159.41,87.54 M160.504,90.169c-0.115,0.548-0.354,1.016-0.717,1.396
		c-0.361,0.381-0.793,0.571-1.291,0.571h-1.82l0.793-3.945h1.813c0.549,0,0.918,0.18,1.111,0.536
		C160.586,89.087,160.623,89.567,160.504,90.169 M147.957,87.411c-0.645,0-1.197,0.182-1.662,0.543
		c-0.465,0.365-0.762,0.885-0.893,1.562c-0.156,0.771-0.084,1.358,0.221,1.763c0.303,0.403,0.816,0.763,1.541,1.073
		c0.652,0.312,1.08,0.618,1.283,0.921c0.205,0.301,0.254,0.725,0.148,1.27c-0.082,0.401-0.303,0.745-0.66,1.024
		c-0.355,0.282-0.744,0.421-1.156,0.421c-0.555,0-0.996-0.149-1.326-0.453c-0.33-0.303-0.418-0.845-0.26-1.623h-0.689l-0.018,0.032
		c-0.197,0.913-0.063,1.587,0.4,2.021c0.467,0.433,1.053,0.65,1.762,0.65c0.682,0,1.262-0.176,1.746-0.524
		c0.482-0.352,0.793-0.871,0.934-1.567c0.146-0.746,0.066-1.325-0.242-1.737c-0.305-0.413-0.824-0.776-1.553-1.093
		c-0.668-0.314-1.096-0.619-1.285-0.913c-0.188-0.295-0.229-0.72-0.115-1.277c0.076-0.394,0.281-0.733,0.604-1.016
		c0.328-0.283,0.691-0.424,1.092-0.424c0.545,0,0.941,0.185,1.189,0.555c0.246,0.372,0.311,0.871,0.186,1.501h0.732
		c0.168-0.839,0.057-1.499-0.33-1.984C149.219,87.652,148.67,87.411,147.957,87.411"/>
</g>
<g>
	<path fill="#00ACA6" d="M119.182,42.922h-1.646l-0.54,1.268h-1.327l2.952-6.194h1.118l0.813,6.194h-1.263L119.182,42.922z
		 M117.981,41.879h1.115l-0.175-2.195L117.981,41.879z"/>
	<path fill="#00ACA6" d="M126.3,37.996l-0.723,4.254c-0.088,0.644-0.328,1.146-0.719,1.506c-0.392,0.36-0.905,0.535-1.54,0.523
		c-0.596-0.011-1.047-0.199-1.353-0.562c-0.307-0.363-0.425-0.852-0.354-1.468l0.724-4.254h1.225l-0.715,4.258l-0.017,0.366
		c0,0.397,0.197,0.603,0.591,0.617c0.272,0.008,0.485-0.064,0.639-0.217c0.153-0.153,0.254-0.408,0.302-0.766l0.719-4.258H126.3z"/>
	<path fill="#00ACA6" d="M128.468,42.475l1.71-4.479h1.391l-2.701,6.194h-1.271l-0.753-6.194h1.323L128.468,42.475z"/>
	<path fill="#00ACA6" d="M134.799,41.51h-1.889l-0.285,1.642h2.238l-0.184,1.038h-3.454l1.072-6.194h3.45l-0.184,1.042h-2.225
		l-0.255,1.463h1.893L134.799,41.51z"/>
	<path fill="#00ACA6" d="M137.74,41.926h-0.621l-0.391,2.263h-1.221l1.071-6.194L138.451,38c0.553,0.017,0.977,0.188,1.271,0.511
		s0.42,0.764,0.375,1.323c-0.071,0.848-0.457,1.438-1.157,1.77l0.621,2.519v0.068h-1.311L137.74,41.926z M137.298,40.884
		l0.643,0.008c0.295-0.005,0.527-0.123,0.698-0.351c0.17-0.229,0.253-0.531,0.251-0.908c-0.012-0.372-0.175-0.569-0.489-0.591
		l-0.779-0.004L137.298,40.884z"/>
	<path fill="#00ACA6" d="M144.57,43.488c-0.23,0.255-0.529,0.451-0.898,0.589c-0.368,0.138-0.764,0.204-1.187,0.198
		c-0.371-0.003-0.693-0.084-0.966-0.245c-0.271-0.16-0.482-0.393-0.632-0.697c-0.148-0.305-0.229-0.656-0.24-1.053
		c-0.008-0.215,0.002-0.435,0.03-0.659l0.153-1.025c0.13-0.862,0.411-1.528,0.842-1.999s0.992-0.699,1.685-0.685
		c0.59,0.012,1.034,0.189,1.334,0.534c0.299,0.344,0.451,0.854,0.457,1.529l-1.187-0.004l-0.013-0.34
		c-0.037-0.442-0.254-0.671-0.651-0.685c-0.587-0.022-0.973,0.365-1.157,1.162l-0.063,0.319l-0.17,1.195
		c-0.037,0.272-0.052,0.505-0.043,0.698c0.015,0.317,0.086,0.548,0.215,0.691c0.129,0.144,0.312,0.218,0.547,0.224
		c0.221,0.006,0.468-0.067,0.74-0.217l0.217-1.14h-0.855l0.166-0.944h2.067L144.57,43.488z"/>
	<path fill="#00ACA6" d="M149.592,44.189h-1.19l-1.081-4.105l-0.715,4.105h-1.221l1.072-6.194h1.195l1.085,4.109l0.714-4.109h1.217
		L149.592,44.189z"/>
	<path fill="#00ACA6" d="M154.26,41.51h-1.889l-0.285,1.642h2.238l-0.184,1.038h-3.454l1.072-6.194h3.45l-0.184,1.042h-2.225
		l-0.255,1.463h1.893L154.26,41.51z"/>
	<path fill="#00ACA6" d="M157.385,42.037h-2.025l0.179-1.004h2.025L157.385,42.037z"/>
	<path fill="#00ACA6" d="M160.402,41.926h-0.621l-0.391,2.263h-1.221l1.071-6.194L161.113,38c0.553,0.017,0.977,0.188,1.271,0.511
		s0.42,0.764,0.375,1.323c-0.071,0.848-0.457,1.438-1.157,1.77l0.621,2.519v0.068h-1.311L160.402,41.926z M159.96,40.884
		l0.643,0.008c0.295-0.005,0.527-0.123,0.698-0.351c0.17-0.229,0.253-0.531,0.251-0.908c-0.012-0.372-0.175-0.569-0.489-0.591
		l-0.779-0.004L159.96,40.884z"/>
	<path fill="#00ACA6" d="M167.193,44.189h-1.216l0.459-2.65h-1.782l-0.46,2.65h-1.221l1.072-6.194h1.221l-0.434,2.506h1.782
		l0.438-2.506h1.216L167.193,44.189z"/>
	<path fill="#00ACA6" d="M170.429,44.274c-0.544-0.011-0.976-0.19-1.295-0.536c-0.319-0.346-0.493-0.827-0.521-1.442
		c-0.011-0.212-0.003-0.428,0.025-0.646l0.158-1.029c0.082-0.55,0.242-1.038,0.48-1.463s0.534-0.742,0.889-0.949
		s0.755-0.306,1.2-0.298c0.55,0.012,0.981,0.199,1.295,0.564c0.313,0.364,0.481,0.863,0.504,1.495
		c0.006,0.238-0.007,0.463-0.038,0.676l-0.141,0.949c-0.128,0.851-0.415,1.514-0.861,1.989
		C171.678,44.058,171.112,44.289,170.429,44.274z M171.905,40.604c0.034-0.292,0.051-0.518,0.051-0.676
		c-0.015-0.632-0.242-0.958-0.685-0.974c-0.341-0.014-0.615,0.114-0.823,0.385c-0.209,0.271-0.354,0.695-0.437,1.274l-0.148,1.042
		c-0.034,0.281-0.047,0.5-0.038,0.659c0.014,0.596,0.248,0.903,0.701,0.923c0.323,0.011,0.589-0.108,0.796-0.357
		s0.352-0.658,0.434-1.225L171.905,40.604z M172.951,37.513v0.079l-0.893-0.013l-0.404-0.608l-0.626,0.604l-0.918,0.013V37.5
		l1.229-1.164l0.66-0.004L172.951,37.513z"/>
	<path fill="#00ACA6" d="M177.726,44.189h-1.19l-1.081-4.105l-0.715,4.105h-1.221l1.072-6.194h1.195l1.085,4.109l0.714-4.109h1.217
		L177.726,44.189z"/>
	<path fill="#00ACA6" d="M182.395,41.51h-1.889l-0.285,1.642h2.238l-0.184,1.038h-3.454l1.072-6.194h3.45l-0.184,1.042h-2.225
		l-0.255,1.463h1.893L182.395,41.51z"/>
	<path fill="#00ACA6" d="M185.52,42.037h-2.025l0.179-1.004h2.025L185.52,42.037z"/>
	<path fill="#00ACA6" d="M189.4,42.922h-1.646l-0.54,1.268h-1.327l2.952-6.194h1.118l0.813,6.194h-1.263L189.4,42.922z
		 M188.2,41.879h1.115l-0.175-2.195L188.2,41.879z"/>
	<path fill="#00ACA6" d="M192.873,43.151h2.132l-0.184,1.038h-3.348l1.072-6.194h1.221L192.873,43.151z"/>
	<path fill="#00ACA6" d="M197.249,42.012l-0.379,2.178h-1.221l1.072-6.194L198.708,38c0.542,0.017,0.967,0.21,1.274,0.581
		s0.438,0.848,0.389,1.432c-0.057,0.607-0.286,1.093-0.688,1.457c-0.403,0.364-0.916,0.546-1.54,0.546L197.249,42.012z
		 M197.428,40.969l0.787,0.009c0.304-0.006,0.539-0.123,0.706-0.351c0.167-0.229,0.247-0.535,0.238-0.921
		c-0.006-0.196-0.053-0.352-0.141-0.468c-0.088-0.116-0.21-0.18-0.365-0.191l-0.89-0.008L197.428,40.969z"/>
	<path fill="#00ACA6" d="M204.159,41.51h-1.889l-0.285,1.642h2.238l-0.184,1.038h-3.454l1.072-6.194h3.45l-0.184,1.042H202.7
		l-0.255,1.463h1.893L204.159,41.51z"/>
	<path fill="#00ACA6" d="M207.717,42.53c0.028-0.209-0.002-0.385-0.092-0.525c-0.089-0.14-0.274-0.278-0.557-0.413
		c-0.282-0.134-0.519-0.274-0.709-0.419c-0.519-0.394-0.757-0.892-0.714-1.493c0.025-0.346,0.134-0.654,0.325-0.925
		c0.191-0.271,0.447-0.481,0.768-0.632s0.664-0.221,1.029-0.213c0.53,0.012,0.945,0.195,1.244,0.551
		c0.3,0.356,0.438,0.812,0.415,1.368l-1.217-0.004c0.031-0.582-0.154-0.876-0.557-0.885c-0.207-0.006-0.386,0.062-0.534,0.202
		c-0.148,0.141-0.239,0.321-0.271,0.542c-0.042,0.332,0.188,0.615,0.689,0.851c0.502,0.236,0.862,0.501,1.081,0.796
		c0.243,0.326,0.347,0.723,0.31,1.191c-0.042,0.539-0.255,0.969-0.638,1.291s-0.86,0.477-1.434,0.466
		c-0.575-0.011-1.03-0.207-1.365-0.587c-0.335-0.38-0.488-0.867-0.46-1.459l1.226,0.004c-0.022,0.366,0.024,0.627,0.143,0.785
		c0.117,0.157,0.303,0.236,0.555,0.236c0.222-0.003,0.396-0.072,0.523-0.206C207.606,42.917,207.686,42.743,207.717,42.53z"/>
</g>
</svg>
